<svg width="53" height="10" viewBox="0 0 53 10" fill="none" xmlns="http://www.w3.org/2000/svg">
<path d="M6.48633 7.62891V9H1.94531V7.62891H6.48633ZM2.51953 0.46875V9H0.761719V0.46875H2.51953ZM5.89453 3.94336V5.2793H1.94531V3.94336H5.89453ZM6.48047 0.46875V1.8457H1.94531V0.46875H6.48047ZM8.76562 2.66016L9.81445 4.58789L10.8926 2.66016H12.6914L10.8984 5.75977L12.7734 9H10.9688L9.82617 6.96094L8.68359 9H6.87891L8.75391 5.75977L6.96094 2.66016H8.76562ZM20.625 4.53516V4.93945C20.625 5.58789 20.5371 6.16992 20.3613 6.68555C20.1855 7.20117 19.9375 7.64062 19.6172 8.00391C19.2969 8.36328 18.9141 8.63867 18.4688 8.83008C18.0273 9.02148 17.5371 9.11719 16.998 9.11719C16.4629 9.11719 15.9727 9.02148 15.5273 8.83008C15.0859 8.63867 14.7031 8.36328 14.3789 8.00391C14.0547 7.64062 13.8027 7.20117 13.623 6.68555C13.4473 6.16992 13.3594 5.58789 13.3594 4.93945V4.53516C13.3594 3.88281 13.4473 3.30078 13.623 2.78906C13.7988 2.27344 14.0469 1.83398 14.3672 1.4707C14.6914 1.10742 15.0742 0.830078 15.5156 0.638672C15.9609 0.447266 16.4512 0.351562 16.9863 0.351562C17.5254 0.351562 18.0156 0.447266 18.457 0.638672C18.9023 0.830078 19.2852 1.10742 19.6055 1.4707C19.9297 1.83398 20.1797 2.27344 20.3555 2.78906C20.5352 3.30078 20.625 3.88281 20.625 4.53516ZM18.8496 4.93945V4.52344C18.8496 4.07031 18.8086 3.67188 18.7266 3.32812C18.6445 2.98438 18.5234 2.69531 18.3633 2.46094C18.2031 2.22656 18.0078 2.05078 17.7773 1.93359C17.5469 1.8125 17.2832 1.75195 16.9863 1.75195C16.6895 1.75195 16.4258 1.8125 16.1953 1.93359C15.9688 2.05078 15.7754 2.22656 15.6152 2.46094C15.459 2.69531 15.3398 2.98438 15.2578 3.32812C15.1758 3.67188 15.1348 4.07031 15.1348 4.52344V4.93945C15.1348 5.38867 15.1758 5.78711 15.2578 6.13477C15.3398 6.47852 15.4609 6.76953 15.6211 7.00781C15.7812 7.24219 15.9766 7.41992 16.207 7.54102C16.4375 7.66211 16.7012 7.72266 16.998 7.72266C17.2949 7.72266 17.5586 7.66211 17.7891 7.54102C18.0195 7.41992 18.2129 7.24219 18.3691 7.00781C18.5254 6.76953 18.6445 6.47852 18.7266 6.13477C18.8086 5.78711 18.8496 5.38867 18.8496 4.93945ZM26.332 6.76758C26.332 6.61523 26.3086 6.47852 26.2617 6.35742C26.2188 6.23242 26.1367 6.11914 26.0156 6.01758C25.8945 5.91211 25.7246 5.80859 25.5059 5.70703C25.2871 5.60547 25.0039 5.5 24.6562 5.39062C24.2695 5.26562 23.9023 5.125 23.5547 4.96875C23.2109 4.8125 22.9062 4.63086 22.6406 4.42383C22.3789 4.21289 22.1719 3.96875 22.0195 3.69141C21.8711 3.41406 21.7969 3.0918 21.7969 2.72461C21.7969 2.36914 21.875 2.04688 22.0312 1.75781C22.1875 1.46484 22.4062 1.21484 22.6875 1.00781C22.9688 0.796875 23.3008 0.634766 23.6836 0.521484C24.0703 0.408203 24.4941 0.351562 24.9551 0.351562C25.584 0.351562 26.1328 0.464844 26.6016 0.691406C27.0703 0.917969 27.4336 1.22852 27.6914 1.62305C27.9531 2.01758 28.084 2.46875 28.084 2.97656H26.3379C26.3379 2.72656 26.2852 2.50781 26.1797 2.32031C26.0781 2.12891 25.9219 1.97852 25.7109 1.86914C25.5039 1.75977 25.2422 1.70508 24.9258 1.70508C24.6211 1.70508 24.3672 1.75195 24.1641 1.8457C23.9609 1.93555 23.8086 2.05859 23.707 2.21484C23.6055 2.36719 23.5547 2.53906 23.5547 2.73047C23.5547 2.875 23.5898 3.00586 23.6602 3.12305C23.7344 3.24023 23.8438 3.34961 23.9883 3.45117C24.1328 3.55273 24.3105 3.64844 24.5215 3.73828C24.7324 3.82812 24.9766 3.91602 25.2539 4.00195C25.7188 4.14258 26.127 4.30078 26.4785 4.47656C26.834 4.65234 27.1309 4.84961 27.3691 5.06836C27.6074 5.28711 27.7871 5.53516 27.9082 5.8125C28.0293 6.08984 28.0898 6.4043 28.0898 6.75586C28.0898 7.12695 28.0176 7.45898 27.873 7.75195C27.7285 8.04492 27.5195 8.29297 27.2461 8.49609C26.9727 8.69922 26.6465 8.85352 26.2676 8.95898C25.8887 9.06445 25.4648 9.11719 24.9961 9.11719C24.5742 9.11719 24.1582 9.0625 23.748 8.95312C23.3379 8.83984 22.9648 8.66992 22.6289 8.44336C22.2969 8.2168 22.0312 7.92773 21.832 7.57617C21.6328 7.22461 21.5332 6.80859 21.5332 6.32812H23.2969C23.2969 6.59375 23.3379 6.81836 23.4199 7.00195C23.502 7.18555 23.6172 7.33398 23.7656 7.44727C23.918 7.56055 24.0977 7.64258 24.3047 7.69336C24.5156 7.74414 24.7461 7.76953 24.9961 7.76953C25.3008 7.76953 25.5508 7.72656 25.7461 7.64062C25.9453 7.55469 26.0918 7.43555 26.1855 7.2832C26.2832 7.13086 26.332 6.95898 26.332 6.76758ZM32.0039 2.66016V3.49219H28.5762V2.66016H32.0039ZM29.7363 1.11914H30.8203V7.42969C30.8203 7.64453 30.8535 7.80664 30.9199 7.91602C30.9863 8.02539 31.0723 8.09766 31.1777 8.13281C31.2832 8.16797 31.3965 8.18555 31.5176 8.18555C31.6074 8.18555 31.7012 8.17773 31.7988 8.16211C31.9004 8.14258 31.9766 8.12695 32.0273 8.11523L32.0332 9C31.9473 9.02734 31.834 9.05273 31.6934 9.07617C31.5566 9.10352 31.3906 9.11719 31.1953 9.11719C30.9297 9.11719 30.6855 9.06445 30.4629 8.95898C30.2402 8.85352 30.0625 8.67773 29.9297 8.43164C29.8008 8.18164 29.7363 7.8457 29.7363 7.42383V1.11914ZM32.8711 5.90039V5.76562C32.8711 5.30859 32.9375 4.88477 33.0703 4.49414C33.2031 4.09961 33.3945 3.75781 33.6445 3.46875C33.8945 3.17578 34.1973 2.94922 34.5527 2.78906C34.9082 2.625 35.3066 2.54297 35.748 2.54297C36.1934 2.54297 36.5938 2.625 36.9492 2.78906C37.3086 2.94922 37.6133 3.17578 37.8633 3.46875C38.1172 3.75781 38.3105 4.09961 38.4434 4.49414C38.5762 4.88477 38.6426 5.30859 38.6426 5.76562V5.90039C38.6426 6.35742 38.5762 6.78125 38.4434 7.17188C38.3105 7.5625 38.1172 7.9043 37.8633 8.19727C37.6133 8.48633 37.3105 8.71289 36.9551 8.87695C36.6035 9.03711 36.2051 9.11719 35.7598 9.11719C35.3145 9.11719 34.9141 9.03711 34.5586 8.87695C34.2031 8.71289 33.8984 8.48633 33.6445 8.19727C33.3945 7.9043 33.2031 7.5625 33.0703 7.17188C32.9375 6.78125 32.8711 6.35742 32.8711 5.90039ZM33.9551 5.76562V5.90039C33.9551 6.2168 33.9922 6.51562 34.0664 6.79688C34.1406 7.07422 34.252 7.32031 34.4004 7.53516C34.5527 7.75 34.7422 7.91992 34.9688 8.04492C35.1953 8.16602 35.459 8.22656 35.7598 8.22656C36.0566 8.22656 36.3164 8.16602 36.5391 8.04492C36.7656 7.91992 36.9531 7.75 37.1016 7.53516C37.25 7.32031 37.3613 7.07422 37.4355 6.79688C37.5137 6.51562 37.5527 6.2168 37.5527 5.90039V5.76562C37.5527 5.45312 37.5137 5.1582 37.4355 4.88086C37.3613 4.59961 37.248 4.35156 37.0957 4.13672C36.9473 3.91797 36.7598 3.74609 36.5332 3.62109C36.3105 3.49609 36.0488 3.43359 35.748 3.43359C35.4512 3.43359 35.1895 3.49609 34.9629 3.62109C34.7402 3.74609 34.5527 3.91797 34.4004 4.13672C34.252 4.35156 34.1406 4.59961 34.0664 4.88086C33.9922 5.1582 33.9551 5.45312 33.9551 5.76562ZM41.0859 3.65625V9H40.002V2.66016H41.0566L41.0859 3.65625ZM43.0664 2.625L43.0605 3.63281C42.9707 3.61328 42.8848 3.60156 42.8027 3.59766C42.7246 3.58984 42.6348 3.58594 42.5332 3.58594C42.2832 3.58594 42.0625 3.625 41.8711 3.70312C41.6797 3.78125 41.5176 3.89062 41.3848 4.03125C41.252 4.17188 41.1465 4.33984 41.0684 4.53516C40.9941 4.72656 40.9453 4.9375 40.9219 5.16797L40.6172 5.34375C40.6172 4.96094 40.6543 4.60156 40.7285 4.26562C40.8066 3.92969 40.9258 3.63281 41.0859 3.375C41.2461 3.11328 41.4492 2.91016 41.6953 2.76562C41.9453 2.61719 42.2422 2.54297 42.5859 2.54297C42.6641 2.54297 42.7539 2.55273 42.8555 2.57227C42.957 2.58789 43.0273 2.60547 43.0664 2.625ZM45.1465 3.91992V9H44.0566V2.66016H45.0879L45.1465 3.91992ZM44.9238 5.58984L44.4199 5.57227C44.4238 5.13867 44.4805 4.73828 44.5898 4.37109C44.6992 4 44.8613 3.67773 45.0762 3.4043C45.291 3.13086 45.5586 2.91992 45.8789 2.77148C46.1992 2.61914 46.5703 2.54297 46.9922 2.54297C47.2891 2.54297 47.5625 2.58594 47.8125 2.67188C48.0625 2.75391 48.2793 2.88477 48.4629 3.06445C48.6465 3.24414 48.7891 3.47461 48.8906 3.75586C48.9922 4.03711 49.043 4.37695 49.043 4.77539V9H47.959V4.82812C47.959 4.49609 47.9023 4.23047 47.7891 4.03125C47.6797 3.83203 47.5234 3.6875 47.3203 3.59766C47.1172 3.50391 46.8789 3.45703 46.6055 3.45703C46.2852 3.45703 46.0176 3.51367 45.8027 3.62695C45.5879 3.74023 45.416 3.89648 45.2871 4.0957C45.1582 4.29492 45.0645 4.52344 45.0059 4.78125C44.9512 5.03516 44.9238 5.30469 44.9238 5.58984ZM49.0312 4.99219L48.3047 5.21484C48.3086 4.86719 48.3652 4.5332 48.4746 4.21289C48.5879 3.89258 48.75 3.60742 48.9609 3.35742C49.1758 3.10742 49.4395 2.91016 49.752 2.76562C50.0645 2.61719 50.4219 2.54297 50.8242 2.54297C51.1641 2.54297 51.4648 2.58789 51.7266 2.67773C51.9922 2.76758 52.2148 2.90625 52.3945 3.09375C52.5781 3.27734 52.7168 3.51367 52.8105 3.80273C52.9043 4.0918 52.9512 4.43555 52.9512 4.83398V9H51.8613V4.82227C51.8613 4.4668 51.8047 4.19141 51.6914 3.99609C51.582 3.79688 51.4258 3.6582 51.2227 3.58008C51.0234 3.49805 50.7852 3.45703 50.5078 3.45703C50.2695 3.45703 50.0586 3.49805 49.875 3.58008C49.6914 3.66211 49.5371 3.77539 49.4121 3.91992C49.2871 4.06055 49.1914 4.22266 49.125 4.40625C49.0625 4.58984 49.0312 4.78516 49.0312 4.99219Z" fill="black"/>
</svg>
